<?xml version="1.0" encoding="utf-8"?>
<!-- Generator: Adobe Illustrator 18.0.0, SVG Export Plug-In . SVG Version: 6.00 Build 0)  -->
<svg version="1.2" baseProfile="tiny" id="Layer_1" xmlns="http://www.w3.org/2000/svg" xmlns:xlink="http://www.w3.org/1999/xlink"
	 x="0px" y="0px" viewBox="0 0 60 60" xml:space="preserve">
<path fill="#A29A91" d="M30,16c-7.7,0-14,6.3-14,14s6.3,14,14,14s14-6.3,14-14S37.7,16,30,16z M30,32c-1.1,0-2-0.9-2-2
	c0-1.1,0.9-2,2-2s2,0.9,2,2C32,31.1,31.1,32,30,32z"/>
<path fill="#EE3F73" d="M30,0C13.4,0,0,13.4,0,30s13.4,30,30,30s30-13.4,30-30S46.6,0,30,0z M30,39c-5,0-9-4-9-9c0-5,4-9,9-9
	s9,4,9,9C39,35,35,39,30,39z"/>
<path fill="#972641" d="M30,16c-7.7,0-14,6.3-14,14s6.3,14,14,14s14-6.3,14-14S37.7,16,30,16z M30,38c-4.4,0-8-3.6-8-8s3.6-8,8-8
	s8,3.6,8,8S34.4,38,30,38z"/>
</svg>
