<?xml version="1.0" encoding="utf-8"?>
<!-- Generator: Adobe Illustrator 18.0.0, SVG Export Plug-In . SVG Version: 6.00 Build 0)  -->
<svg version="1.2" baseProfile="tiny" id="Layer_1" xmlns="http://www.w3.org/2000/svg" xmlns:xlink="http://www.w3.org/1999/xlink"
	 x="0px" y="0px" viewBox="0 0 65 60" xml:space="preserve">
<g>
	<path fill="#A19990" d="M24.7,22h-2.6v-7.8H20V12h6.9v2.2h-2.1V22z"/>
	<path fill="#A19990" d="M35.2,15.9V12h2.6v10h-2.6v-4.1h-3.8V22h-2.6V12h2.6v3.9H35.2z"/>
	<path fill="#A19990" d="M43.1,14.2v1.7H46v2.2h-2.9v1.7h3.1V22h-5.7V12h5.7v2.2H43.1z"/>
</g>
<g>
	<path fill="#A19990" d="M20,38h4c2.1,0,3.6,1,3.6,3.3c0,2.4-1.3,3.4-3.5,3.4h-1.5V48H20V38z M22.6,42.6H23c0.9,0,1.9,0,1.9-1.2
		c0-1.3-0.9-1.3-1.9-1.3h-0.4V42.6z"/>
	<path fill="#A19990" d="M38.1,48h-3.2l-2.5-3.8h0V48h-2.6V38h3.9c2,0,3.5,0.9,3.5,3.1c0,1.4-0.8,2.6-2.2,2.8L38.1,48z M32.4,42.5
		h0.3c0.8,0,1.8-0.2,1.8-1.2s-1-1.2-1.8-1.2h-0.3V42.5z"/>
	<path fill="#A19990" d="M42.4,40.2v1.7h2.9v2.2h-2.9v1.7h3.1V48h-5.7V38h5.7v2.2H42.4z"/>
	<path fill="#A19990" d="M53.5,40.6c-0.5-0.4-1.1-0.7-1.7-0.7c-0.5,0-1.1,0.3-1.1,0.8c0,0.6,0.7,0.8,1.2,1l0.7,0.2
		c1.4,0.4,2.5,1.1,2.5,2.7c0,1-0.2,2-1,2.7c-0.8,0.7-1.8,0.9-2.8,0.9c-1.3,0-2.5-0.4-3.5-1.1l1.1-2.1c0.7,0.6,1.4,1,2.3,1
		c0.6,0,1.3-0.3,1.3-1c0-0.7-1-1-1.6-1.1C49.1,43.5,48,43,48,41.1c0-2,1.4-3.4,3.4-3.4c1,0,2.2,0.3,3.1,0.8L53.5,40.6z"/>
	<path fill="#A19990" d="M62.7,40.6c-0.5-0.4-1.1-0.7-1.7-0.7c-0.5,0-1.1,0.3-1.1,0.8c0,0.6,0.7,0.8,1.2,1l0.7,0.2
		c1.4,0.4,2.5,1.1,2.5,2.7c0,1-0.2,2-1,2.7c-0.8,0.7-1.8,0.9-2.8,0.9c-1.3,0-2.5-0.4-3.5-1.1l1.1-2.1c0.7,0.6,1.4,1,2.3,1
		c0.6,0,1.3-0.3,1.3-1c0-0.7-1-1-1.6-1.1c-1.6-0.5-2.7-0.9-2.7-2.8c0-2,1.4-3.4,3.4-3.4c1,0,2.2,0.3,3.1,0.8L62.7,40.6z"/>
</g>
<g>
	<g>
		<path fill="#EE3F73" d="M17.8,29.8c0,3.2-2.3,5.5-5.5,5.5c-3.2,0-5.5-2.3-5.5-5.5c0-3,2.7-5.1,5.5-5.1S17.8,26.8,17.8,29.8z
			 M9.4,29.8c0,1.7,1.3,3,2.8,3c1.6,0,2.8-1.3,2.8-3c0-1.4-1.3-2.6-2.8-2.6C10.7,27.2,9.4,28.4,9.4,29.8z"/>
	</g>
	<g>
		<path fill="#EE3F73" d="M20,25h4c2.1,0,3.6,1,3.6,3.3c0,2.4-1.3,3.4-3.5,3.4h-1.5V35H20V25z M22.6,29.6H23c0.9,0,1.9,0,1.9-1.2
			c0-1.3-0.9-1.3-1.9-1.3h-0.4V29.6z"/>
		<path fill="#EE3F73" d="M32.4,27.2v1.7h2.9v2.2h-2.9v1.7h3.1V35h-5.7V25h5.7v2.2H32.4z"/>
		<path fill="#EE3F73" d="M38,25h2.6l4.8,6.1h0V25H48v10h-2.6l-4.8-6.1h0V35H38V25z"/>
	</g>
</g>
</svg>
