<svg version="1.2" baseProfile="tiny" xmlns="http://www.w3.org/2000/svg" viewBox="0 0 65 60"><g fill="#A19990"><path d="M24.7 22h-2.6v-7.8H20V12h6.9v2.2h-2.1V22zM35.2 15.9V12h2.6v10h-2.6v-4.1h-3.8V22h-2.6V12h2.6v3.9h3.8zM43.1 14.2v1.7H46v2.2h-2.9v1.7h3.1V22h-5.7V12h5.7v2.2h-3.1z"/></g><g fill="#A19990"><path d="M20 38h4c2.1 0 3.6 1 3.6 3.3 0 2.4-1.3 3.4-3.5 3.4h-1.5V48H20V38zm2.6 4.6h.4c.9 0 1.9 0 1.9-1.2 0-1.3-.9-1.3-1.9-1.3h-.4v2.5zM38.1 48h-3.2l-2.5-3.8V48h-2.6V38h3.9c2 0 3.5.9 3.5 3.1 0 1.4-.8 2.6-2.2 2.8l3.1 4.1zm-5.7-5.5h.3c.8 0 1.8-.2 1.8-1.2s-1-1.2-1.8-1.2h-.3v2.4zM42.4 40.2v1.7h2.9v2.2h-2.9v1.7h3.1V48h-5.7V38h5.7v2.2h-3.1zM53.5 40.6c-.5-.4-1.1-.7-1.7-.7-.5 0-1.1.3-1.1.8 0 .6.7.8 1.2 1l.7.2c1.4.4 2.5 1.1 2.5 2.7 0 1-.2 2-1 2.7-.8.7-1.8.9-2.8.9-1.3 0-2.5-.4-3.5-1.1l1.1-2.1c.7.6 1.4 1 2.3 1 .6 0 1.3-.3 1.3-1s-1-1-1.6-1.1c-1.8-.4-2.9-.9-2.9-2.8 0-2 1.4-3.4 3.4-3.4 1 0 2.2.3 3.1.8l-1 2.1zM62.7 40.6c-.5-.4-1.1-.7-1.7-.7-.5 0-1.1.3-1.1.8 0 .6.7.8 1.2 1l.7.2c1.4.4 2.5 1.1 2.5 2.7 0 1-.2 2-1 2.7-.8.7-1.8.9-2.8.9-1.3 0-2.5-.4-3.5-1.1l1.1-2.1c.7.6 1.4 1 2.3 1 .6 0 1.3-.3 1.3-1s-1-1-1.6-1.1c-1.6-.5-2.7-.9-2.7-2.8 0-2 1.4-3.4 3.4-3.4 1 0 2.2.3 3.1.8l-1.2 2.1z"/></g><path fill="#EE3F73" d="M17.8 29.8c0 3.2-2.3 5.5-5.5 5.5S6.8 33 6.8 29.8c0-3 2.7-5.1 5.5-5.1s5.5 2.1 5.5 5.1zm-8.4 0c0 1.7 1.3 3 2.8 3 1.6 0 2.8-1.3 2.8-3 0-1.4-1.3-2.6-2.8-2.6-1.5 0-2.8 1.2-2.8 2.6z"/><g fill="#EE3F73"><path d="M20 25h4c2.1 0 3.6 1 3.6 3.3 0 2.4-1.3 3.4-3.5 3.4h-1.5V35H20V25zm2.6 4.6h.4c.9 0 1.9 0 1.9-1.2 0-1.3-.9-1.3-1.9-1.3h-.4v2.5zM32.4 27.2v1.7h2.9v2.2h-2.9v1.7h3.1V35h-5.7V25h5.7v2.2h-3.1zM38 25h2.6l4.8 6.1V25H48v10h-2.6l-4.8-6.1V35H38V25z"/></g></svg>